<svg width="27" height="29" viewBox="0 0 27 29" fill="none" xmlns="http://www.w3.org/2000/svg">
<path d="M24.75 2.23077H21.375V1.11538C21.375 0.819566 21.2565 0.535864 21.0455 0.326689C20.8345 0.117513 20.5484 0 20.25 0C19.9516 0 19.6655 0.117513 19.4545 0.326689C19.2435 0.535864 19.125 0.819566 19.125 1.11538V2.23077H7.875V1.11538C7.875 0.819566 7.75647 0.535864 7.5455 0.326689C7.33452 0.117513 7.04837 0 6.75 0C6.45163 0 6.16548 0.117513 5.9545 0.326689C5.74353 0.535864 5.625 0.819566 5.625 1.11538V2.23077H2.25C1.65326 2.23077 1.08097 2.4658 0.65901 2.88415C0.237053 3.3025 0 3.8699 0 4.46154V26.7692C0 27.3609 0.237053 27.9283 0.65901 28.3466C1.08097 28.765 1.65326 29 2.25 29H24.75C25.3467 29 25.919 28.765 26.341 28.3466C26.7629 27.9283 27 27.3609 27 26.7692V4.46154C27 3.8699 26.7629 3.3025 26.341 2.88415C25.919 2.4658 25.3467 2.23077 24.75 2.23077ZM7.3125 23.4231C6.97874 23.4231 6.65248 23.325 6.37498 23.1411C6.09747 22.9573 5.88118 22.696 5.75345 22.3903C5.62573 22.0845 5.59231 21.7481 5.65742 21.4236C5.72254 21.0991 5.88326 20.8009 6.11926 20.567C6.35526 20.333 6.65594 20.1736 6.98328 20.1091C7.31063 20.0445 7.64993 20.0776 7.95828 20.2043C8.26663 20.3309 8.53018 20.5454 8.71561 20.8205C8.90103 21.0956 9 21.4191 9 21.75C9 22.1937 8.82221 22.6193 8.50574 22.933C8.18928 23.2468 7.76005 23.4231 7.3125 23.4231ZM13.5 23.4231C13.1662 23.4231 12.84 23.325 12.5625 23.1411C12.285 22.9573 12.0687 22.696 11.941 22.3903C11.8132 22.0845 11.7798 21.7481 11.8449 21.4236C11.91 21.0991 12.0708 20.8009 12.3068 20.567C12.5428 20.333 12.8434 20.1736 13.1708 20.1091C13.4981 20.0445 13.8374 20.0776 14.1458 20.2043C14.4541 20.3309 14.7177 20.5454 14.9031 20.8205C15.0885 21.0956 15.1875 21.4191 15.1875 21.75C15.1875 22.1937 15.0097 22.6193 14.6932 22.933C14.3768 23.2468 13.9476 23.4231 13.5 23.4231ZM13.5 17.8462C13.1662 17.8462 12.84 17.748 12.5625 17.5642C12.285 17.3803 12.0687 17.119 11.941 16.8133C11.8132 16.5076 11.7798 16.1712 11.8449 15.8467C11.91 15.5221 12.0708 15.224 12.3068 14.99C12.5428 14.756 12.8434 14.5967 13.1708 14.5321C13.4981 14.4676 13.8374 14.5007 14.1458 14.6274C14.4541 14.754 14.7177 14.9684 14.9031 15.2436C15.0885 15.5187 15.1875 15.8422 15.1875 16.1731C15.1875 16.6168 15.0097 17.0424 14.6932 17.3561C14.3768 17.6699 13.9476 17.8462 13.5 17.8462ZM19.6875 23.4231C19.3537 23.4231 19.0275 23.325 18.75 23.1411C18.4725 22.9573 18.2562 22.696 18.1285 22.3903C18.0007 22.0845 17.9673 21.7481 18.0324 21.4236C18.0975 21.0991 18.2583 20.8009 18.4943 20.567C18.7303 20.333 19.0309 20.1736 19.3583 20.1091C19.6856 20.0445 20.0249 20.0776 20.3333 20.2043C20.6416 20.3309 20.9052 20.5454 21.0906 20.8205C21.276 21.0956 21.375 21.4191 21.375 21.75C21.375 22.1937 21.1972 22.6193 20.8807 22.933C20.5643 23.2468 20.1351 23.4231 19.6875 23.4231ZM19.6875 17.8462C19.3537 17.8462 19.0275 17.748 18.75 17.5642C18.4725 17.3803 18.2562 17.119 18.1285 16.8133C18.0007 16.5076 17.9673 16.1712 18.0324 15.8467C18.0975 15.5221 18.2583 15.224 18.4943 14.99C18.7303 14.756 19.0309 14.5967 19.3583 14.5321C19.6856 14.4676 20.0249 14.5007 20.3333 14.6274C20.6416 14.754 20.9052 14.9684 21.0906 15.2436C21.276 15.5187 21.375 15.8422 21.375 16.1731C21.375 16.6168 21.1972 17.0424 20.8807 17.3561C20.5643 17.6699 20.1351 17.8462 19.6875 17.8462ZM24.75 8.92308H2.25V4.46154H5.625V5.57692C5.625 5.87274 5.74353 6.15644 5.9545 6.36562C6.16548 6.57479 6.45163 6.69231 6.75 6.69231C7.04837 6.69231 7.33452 6.57479 7.5455 6.36562C7.75647 6.15644 7.875 5.87274 7.875 5.57692V4.46154H19.125V5.57692C19.125 5.87274 19.2435 6.15644 19.4545 6.36562C19.6655 6.57479 19.9516 6.69231 20.25 6.69231C20.5484 6.69231 20.8345 6.57479 21.0455 6.36562C21.2565 6.15644 21.375 5.87274 21.375 5.57692V4.46154H24.75V8.92308Z" fill="black"/>
</svg>
