<svg width="63" height="63" viewBox="0 0 63 63" fill="none" xmlns="http://www.w3.org/2000/svg">
<path d="M62.4506 12.5024C62.2316 12.2404 61.9577 12.0296 61.6483 11.885C61.3389 11.7403 61.0015 11.6654 60.6599 11.6655H13.6135L11.8404 1.91605C11.7427 1.37847 11.4594 0.892218 11.04 0.542067C10.6206 0.191916 10.0916 7.89669e-05 9.54519 0H2.33307C1.7143 0 1.12088 0.245807 0.683342 0.683346C0.245805 1.12089 0 1.71432 0 2.33309C0 2.95186 0.245805 3.5453 0.683342 3.98283C1.12088 4.42037 1.7143 4.66618 2.33307 4.66618H7.58249L15.0367 45.5798C15.2562 46.7932 15.7925 47.927 16.5911 48.8666C15.4888 49.8961 14.6933 51.2108 14.2926 52.6649C13.8919 54.1189 13.9018 55.6556 14.3211 57.1044C14.7404 58.5532 15.5528 59.8576 16.6681 60.8729C17.7835 61.8881 19.1583 62.5747 20.64 62.8563C22.1217 63.138 23.6525 63.0038 25.0626 62.4686C26.4727 61.9333 27.707 61.018 28.6287 59.8241C29.5504 58.6302 30.1234 57.2044 30.2841 55.7047C30.4449 54.2051 30.1872 52.6901 29.5396 51.328H42.7857C42.2637 52.4207 41.9936 53.6166 41.9953 54.8276C41.9953 56.4427 42.4743 58.0214 43.3715 59.3643C44.2688 60.7072 45.5441 61.7538 47.0362 62.3719C48.5283 62.9899 50.1702 63.1516 51.7542 62.8365C53.3382 62.5215 54.7932 61.7437 55.9352 60.6017C57.0772 59.4597 57.8549 58.0047 58.17 56.4207C58.485 54.8367 58.3233 53.1948 57.7053 51.7027C57.0872 50.2106 56.0406 48.9353 54.6978 48.038C53.3549 47.1407 51.7761 46.6618 50.1611 46.6618H21.9221C21.3758 46.6617 20.8468 46.4699 20.4273 46.1197C20.0079 45.7696 19.7247 45.2833 19.627 44.7458L18.7025 39.6625H52.5321C54.1712 39.6623 55.7583 39.0868 57.0166 38.0363C58.2749 36.9859 59.1246 35.5271 59.4176 33.9144L62.9638 14.4156C63.0239 14.0786 63.009 13.7325 62.9203 13.4018C62.8316 13.0712 62.6712 12.7642 62.4506 12.5024ZM25.6638 54.8276C25.6638 55.5198 25.4586 56.1964 25.074 56.7719C24.6895 57.3474 24.1429 57.796 23.5035 58.0609C22.864 58.3257 22.1603 58.395 21.4815 58.26C20.8026 58.125 20.179 57.7917 19.6896 57.3022C19.2002 56.8128 18.8669 56.1892 18.7318 55.5104C18.5968 54.8315 18.6661 54.1278 18.931 53.4884C19.1959 52.8489 19.6444 52.3023 20.2199 51.9178C20.7954 51.5332 21.472 51.328 22.1642 51.328C23.0924 51.328 23.9825 51.6967 24.6388 52.353C25.2951 53.0093 25.6638 53.8995 25.6638 54.8276ZM53.6607 54.8276C53.6607 55.5198 53.4555 56.1964 53.0709 56.7719C52.6864 57.3474 52.1398 57.796 51.5003 58.0609C50.8609 58.3257 50.1572 58.395 49.4784 58.26C48.7995 58.125 48.1759 57.7917 47.6865 57.3022C47.1971 56.8128 46.8638 56.1892 46.7287 55.5104C46.5937 54.8315 46.663 54.1278 46.9279 53.4884C47.1928 52.8489 47.6413 52.3023 48.2168 51.9178C48.7923 51.5332 49.4689 51.328 50.1611 51.328C51.0893 51.328 51.9794 51.6967 52.6357 52.353C53.292 53.0093 53.6607 53.8995 53.6607 54.8276Z" fill="black"/>
</svg>
