<svg width="27" height="26" viewBox="0 0 27 26" fill="none" xmlns="http://www.w3.org/2000/svg">
<path d="M6.12497 25.8299C6.44579 25.8299 6.76503 25.7315 7.03979 25.5353L13.4999 20.9025L19.96 25.5353C20.2276 25.7279 20.5493 25.831 20.879 25.8298C21.2087 25.8287 21.5297 25.7234 21.796 25.529C22.0625 25.3357 22.2614 25.0633 22.3642 24.7505C22.4669 24.4377 22.4685 24.1004 22.3685 23.7867L19.9592 16.0108L26.3613 11.4994C26.6267 11.3036 26.8237 11.0293 26.9246 10.7154C27.0255 10.4014 27.0251 10.0637 26.9236 9.74998C26.8212 9.43701 26.623 9.16413 26.3571 8.96991C26.0912 8.77568 25.771 8.66993 25.4417 8.6676L17.5125 8.65569L14.9881 1.07272C14.8839 0.760334 14.6841 0.488643 14.4169 0.29612C14.1497 0.103597 13.8288 0 13.4995 0C13.1702 0 12.8492 0.103597 12.5821 0.29612C12.3149 0.488643 12.1151 0.760334 12.0109 1.07272L9.52933 8.65569L1.55963 8.6676C1.22996 8.66946 0.90926 8.77516 0.643088 8.96968C0.376917 9.16419 0.178811 9.43764 0.0769113 9.75117C-0.0249902 10.0647 -0.0255048 10.4024 0.0754447 10.7162C0.176394 11.03 0.373672 11.3041 0.639251 11.4994L7.04138 16.0108L4.63204 23.7867C4.53189 24.1003 4.53323 24.4376 4.63589 24.7504C4.73855 25.0632 4.93729 25.3357 5.2038 25.529C5.47093 25.7249 5.79369 25.8304 6.12497 25.8299Z" fill="#CEC9C1"/>
</svg>
