<svg width="32" height="33" viewBox="0 0 32 33" fill="none" xmlns="http://www.w3.org/2000/svg">
<path d="M0.455427 2.96868C0.313412 3.09178 0.199319 3.24378 0.120779 3.41452C0.0422381 3.58526 0.00106048 3.77081 0 3.95874V31.6804C0 32.0305 0.13908 32.3663 0.386642 32.6138C0.634205 32.8614 0.969972 33.0005 1.32008 33.0005C1.67019 33.0005 2.00595 32.8614 2.25351 32.6138C2.50108 32.3663 2.64016 32.0305 2.64016 31.6804V24.382C7.06077 20.8904 10.8692 22.7732 15.2552 24.9447C17.9613 26.2829 20.8754 27.7251 24.0007 27.7251C26.2993 27.7251 28.7101 26.9413 31.2314 24.7549C31.3734 24.6318 31.4875 24.4798 31.5661 24.3091C31.6446 24.1384 31.6858 23.9528 31.6868 23.7649V3.95874C31.6862 3.70536 31.6127 3.45751 31.4751 3.24477C31.3375 3.03204 31.1415 2.86341 30.9106 2.75902C30.6797 2.65463 30.4237 2.61889 30.1731 2.65606C29.9224 2.69324 29.6878 2.80177 29.4972 2.96868C24.8769 6.96687 20.9628 5.02966 16.4267 2.78387C11.7272 0.453933 6.39908 -2.18127 0.455427 2.96868ZM29.0417 23.1411C24.6211 26.6327 20.8127 24.7483 16.4267 22.5785C12.3015 20.5406 7.71256 18.2667 2.64016 21.1924V4.58413C7.06077 1.09252 10.8692 2.97528 15.2552 5.14516C19.3804 7.18303 23.971 9.45687 29.0417 6.53124V23.1411Z" fill="white"/>
</svg>
