<svg width="17" height="20" viewBox="0 0 17 20" fill="none" xmlns="http://www.w3.org/2000/svg">
<path d="M16.9224 10.0001C16.923 10.2612 16.856 10.5181 16.728 10.7457C16.5999 10.9734 16.4152 11.164 16.1916 11.299L2.33836 19.7737C2.1048 19.9167 1.8373 19.9948 1.56347 19.9999C1.28965 20.0049 1.01943 19.9368 0.780737 19.8025C0.544314 19.6703 0.347366 19.4776 0.210149 19.244C0.072931 19.0105 0.000395039 18.7446 0 18.4737V1.52638C0.000395039 1.25551 0.072931 0.989634 0.210149 0.756094C0.347366 0.522553 0.544314 0.329776 0.780737 0.197587C1.01943 0.0633124 1.28965 -0.00480704 1.56347 0.000263784C1.8373 0.00533461 2.1048 0.083412 2.33836 0.226432L16.1916 8.70108C16.4152 8.83614 16.5999 9.02675 16.728 9.25438C16.856 9.482 16.923 9.73889 16.9224 10.0001Z" fill="white"/>
</svg>
