<svg width="11" height="17" viewBox="0 0 11 17" fill="none" xmlns="http://www.w3.org/2000/svg">
<path d="M3.09099 17.0004H0.772748C0.567802 17.0004 0.371251 16.919 0.226333 16.7741C0.0814144 16.6292 0 16.4326 0 16.2277V0.772748C0 0.567802 0.0814144 0.371251 0.226333 0.226333C0.371251 0.0814144 0.567802 0 0.772748 0H3.09099C3.29594 0 3.49249 0.0814144 3.63741 0.226333C3.78232 0.371251 3.86374 0.567802 3.86374 0.772748V16.2277C3.86374 16.4326 3.78232 16.6292 3.63741 16.7741C3.49249 16.919 3.29594 17.0004 3.09099 17.0004ZM10.0457 17.0004H7.72748C7.52253 17.0004 7.32598 16.919 7.18106 16.7741C7.03614 16.6292 6.95473 16.4326 6.95473 16.2277V0.772748C6.95473 0.567802 7.03614 0.371251 7.18106 0.226333C7.32598 0.0814144 7.52253 0 7.72748 0H10.0457C10.2507 0 10.4472 0.0814144 10.5921 0.226333C10.7371 0.371251 10.8185 0.567802 10.8185 0.772748V16.2277C10.8185 16.4326 10.7371 16.6292 10.5921 16.7741C10.4472 16.919 10.2507 17.0004 10.0457 17.0004Z" fill="white"/>
</svg>
