<svg width="54" height="54" viewBox="0 0 54 54" fill="none" xmlns="http://www.w3.org/2000/svg">
<path d="M52.7121 25.3525L47.006 23.9265C46.3579 19.6618 44.363 15.7162 41.3129 12.666C38.2627 9.61577 34.317 7.6209 30.0523 6.97282L28.6263 1.27731C28.5349 0.91241 28.3241 0.588531 28.0276 0.357112C27.731 0.125692 27.3656 0 26.9894 0C26.6132 0 26.2478 0.125692 25.9513 0.357112C25.6547 0.588531 25.4439 0.91241 25.3525 1.27731L23.9265 6.98337C19.6618 7.63145 15.7162 9.62631 12.666 12.6765C9.61577 15.7267 7.6209 19.6724 6.97282 23.937L1.27731 25.363C0.91241 25.4545 0.588531 25.6652 0.357112 25.9618C0.125692 26.2584 0 26.6238 0 27C0 27.3761 0.125692 27.7415 0.357112 28.0381C0.588531 28.3347 0.91241 28.5454 1.27731 28.6369L6.98337 30.0629C7.63145 34.3275 9.62631 38.2732 12.6765 41.3234C15.7267 44.3736 19.6724 46.3685 23.937 47.0165L25.363 52.7226C25.4545 53.0875 25.6652 53.4114 25.9618 53.6428C26.2584 53.8742 26.6238 53.9999 27 53.9999C27.3761 53.9999 27.7415 53.8742 28.0381 53.6428C28.3347 53.4114 28.5454 53.0875 28.6369 52.7226L30.0629 47.0165C34.3275 46.3685 38.2732 44.3736 41.3234 41.3234C44.3736 38.2732 46.3685 34.3275 47.0165 30.0629L52.7226 28.6369C53.0875 28.5454 53.4114 28.3347 53.6428 28.0381C53.8742 27.7415 53.9999 27.3761 53.9999 27C53.9999 26.6238 53.8742 26.2584 53.6428 25.9618C53.4114 25.6652 53.0875 25.4545 52.7226 25.363L52.7121 25.3525ZM32.5689 30.1831L29.3752 26.9894L32.5689 23.7957L45.3416 26.9894L32.5689 30.1831ZM21.4099 30.1831L8.63718 26.9894L21.4141 23.7957L24.6036 26.9894L21.4099 30.1831ZM43.3946 23.0236L33.4443 20.5345L30.9552 10.5842C33.9733 11.3106 36.732 12.8566 38.9271 15.0517C41.1222 17.2468 42.6682 20.0055 43.3946 23.0236ZM30.1831 21.4099L26.9894 24.6036L23.7957 21.4099L26.9894 8.63718L30.1831 21.4099ZM23.0236 10.5842L20.5345 20.5345L10.5842 23.0236C11.3106 20.0055 12.8566 17.2468 15.0517 15.0517C17.2468 12.8566 20.0055 11.3106 23.0236 10.5842ZM10.5779 30.9552L20.5345 33.4443L23.0236 43.3946C20.0055 42.6682 17.2468 41.1222 15.0517 38.9271C12.8566 36.732 11.3106 33.9733 10.5842 30.9552H10.5779ZM23.7894 32.5689L26.9894 29.3752L30.1831 32.5689L26.9894 45.3416L23.7894 32.5689ZM30.9488 43.3946L33.438 33.4443L43.3883 30.9552C42.6624 33.9725 41.1173 36.7307 38.9234 38.9257C36.7295 41.1207 33.9721 42.6672 30.9552 43.3946H30.9488Z" fill="black"/>
</svg>
