<svg width="9" height="17" viewBox="0 0 9 17" fill="none" xmlns="http://www.w3.org/2000/svg">
<path d="M8.77967 8.78026L1.28049 16.2795C1.17561 16.3844 1.04193 16.456 0.896383 16.4849C0.750835 16.5139 0.59996 16.4991 0.462857 16.4423C0.325755 16.3855 0.20859 16.2893 0.126196 16.1658C0.0438021 16.0424 -0.000116558 15.8973 2.32325e-07 15.7489V0.750509C-0.000116558 0.602104 0.0438021 0.457 0.126196 0.333568C0.20859 0.210136 0.325755 0.113926 0.462857 0.0571175C0.59996 0.000309337 0.750835 -0.0145425 0.896383 0.0144421C1.04193 0.0434268 1.17561 0.114945 1.28049 0.219942L8.77967 7.71913C8.8494 7.78878 8.90471 7.87148 8.94245 7.96252C8.98019 8.05356 8.99961 8.15115 8.99961 8.2497C8.99961 8.34825 8.98019 8.44583 8.94245 8.53687C8.90471 8.62791 8.8494 8.71062 8.77967 8.78026Z" fill="black"/>
</svg>
