<svg width="53" height="53" viewBox="0 0 53 53" fill="none" xmlns="http://www.w3.org/2000/svg">
<path d="M36.6807 22.4312C36.6807 25.2525 35.8441 28.0104 34.2766 30.3563C32.7092 32.7021 30.4814 34.5304 27.8749 35.6101C25.2683 36.6897 22.4002 36.9722 19.6331 36.4218C16.866 35.8714 14.3243 34.5128 12.3294 32.5179C10.3344 30.5229 8.97582 27.9812 8.42541 25.2141C7.87501 22.447 8.1575 19.5789 9.23716 16.9724C10.3168 14.3658 12.1452 12.138 14.491 10.5706C16.8368 9.00315 19.5947 8.16655 22.416 8.16655C26.1992 8.16655 29.8275 9.66943 32.5026 12.3446C35.1778 15.0197 36.6807 18.648 36.6807 22.4312ZM52.3871 52.4023C52.1978 52.5918 51.9731 52.7421 51.7257 52.8447C51.4783 52.9472 51.2132 53 50.9454 53C50.6775 53 50.4124 52.9472 50.165 52.8447C49.9176 52.7421 49.6929 52.5918 49.5036 52.4023L36.752 39.6482C32.3175 43.3374 26.6314 45.1751 20.8766 44.7789C15.1217 44.3828 9.74111 41.7834 5.85392 37.5213C1.96672 33.2593 -0.127794 27.6628 0.00604045 21.8959C0.139875 16.1289 2.49176 10.6356 6.57248 6.55847C10.6532 2.48135 16.1486 0.134327 21.9157 0.00558913C27.6827 -0.123149 33.2774 1.97631 37.536 5.86727C41.7946 9.75823 44.3892 15.1412 44.7803 20.8964C45.1713 26.6515 43.3286 32.336 39.6355 36.7672L52.3871 49.5188C52.5766 49.7081 52.7269 49.9328 52.8294 50.1802C52.932 50.4276 52.9848 50.6928 52.9848 50.9606C52.9848 51.2284 52.932 51.4935 52.8294 51.7409C52.7269 51.9883 52.5766 52.2131 52.3871 52.4023ZM22.416 40.7715C26.0434 40.7715 29.5893 39.6959 32.6053 37.6806C35.6214 35.6654 37.9721 32.801 39.3602 29.4498C40.7484 26.0985 41.1116 22.4109 40.4039 18.8532C39.6962 15.2955 37.9495 12.0276 35.3845 9.46267C32.8196 6.89774 29.5517 5.15099 25.994 4.44333C22.4363 3.73566 18.7487 4.09886 15.3975 5.487C12.0462 6.87513 9.18186 9.22585 7.1666 12.2419C5.15134 15.2579 4.0757 18.8039 4.0757 22.4312C4.0811 27.2937 6.0151 31.9555 9.45341 35.3938C12.8917 38.8321 17.5535 40.7661 22.416 40.7715Z" fill="#3D3D3D"/>
</svg>
