<svg width="51" height="53" viewBox="0 0 51 53" fill="none" xmlns="http://www.w3.org/2000/svg">
<path d="M50.6418 2.22794C50.6102 1.68769 50.3814 1.17784 49.9987 0.795179C49.6161 0.412518 49.1062 0.18369 48.566 0.15214C27.5513 -1.08174 10.7186 5.24501 3.54166 17.1146C1.05392 21.1748 -0.171975 25.8824 0.019436 30.6404C0.144377 33.683 0.763421 36.685 1.85232 39.5288C1.9163 39.7038 2.02354 39.8597 2.16404 39.9821C2.30454 40.1045 2.47374 40.1894 2.65587 40.2288C2.838 40.2682 3.02714 40.2609 3.20567 40.2075C3.3842 40.1541 3.54632 40.0564 3.67692 39.9235L27.14 16.1015C27.3452 15.8964 27.5888 15.7336 27.8568 15.6226C28.1249 15.5115 28.4122 15.4544 28.7024 15.4544C28.9925 15.4544 29.2799 15.5115 29.5479 15.6226C29.816 15.7336 30.0596 15.8964 30.2648 16.1015C30.4699 16.3067 30.6327 16.5503 30.7437 16.8183C30.8548 17.0864 30.9119 17.3737 30.9119 17.6639C30.9119 17.9541 30.8548 18.2414 30.7437 18.5094C30.6327 18.7775 30.4699 19.0211 30.2648 19.2263L4.62373 45.2537L0.706766 49.1707C0.299407 49.5673 0.0562099 50.1027 0.0255234 50.6704C-0.00516313 51.2381 0.178909 51.7965 0.541145 52.2347C0.739523 52.4644 0.983131 52.6508 1.25676 52.7822C1.53039 52.9135 1.82816 52.9871 2.13148 52.9982C2.43481 53.0094 2.73717 52.9579 3.01969 52.8469C3.30222 52.736 3.55884 52.568 3.77353 52.3534L8.40818 47.7188C12.3113 49.6068 16.2504 50.6365 20.1563 50.7745C20.4636 50.7855 20.77 50.791 21.0755 50.791C25.5236 50.8024 29.8872 49.5772 33.6793 47.2523C45.5489 40.0753 51.8784 23.2454 50.6418 2.22794Z" fill="#008753"/>
</svg>
