<svg width="64" height="57" viewBox="0 0 64 57" fill="none" xmlns="http://www.w3.org/2000/svg">
<path d="M63.4975 13.7403L56.4711 39.0286C56.0848 40.41 55.2585 41.6277 54.1176 42.4971C52.9767 43.3665 51.5834 43.8401 50.149 43.8462H23.0631C21.6245 43.8455 20.2255 43.3743 19.0797 42.5045C17.9338 41.6347 17.1038 40.414 16.7163 39.0286L7.10308 4.38462H2.19231C1.61087 4.38462 1.05325 4.15364 0.642112 3.7425C0.230975 3.33137 0 2.77374 0 2.19231C0 1.61087 0.230975 1.05325 0.642112 0.642112C1.05325 0.230975 1.61087 4.0493e-08 2.19231 4.0493e-08H8.76923C9.24853 -9.20491e-05 9.71465 0.156891 10.0962 0.446919C10.4778 0.736946 10.7539 1.14404 10.8821 1.60587L13.48 10.9615H61.3846C61.7226 10.9615 62.056 11.0396 62.3588 11.1897C62.6616 11.3398 62.9256 11.5579 63.1302 11.8269C63.3347 12.096 63.4743 12.4087 63.538 12.7406C63.6018 13.0725 63.5879 13.4146 63.4975 13.7403ZM21.9231 48.2308C21.0559 48.2308 20.2082 48.4879 19.4871 48.9697C18.7661 49.4515 18.2041 50.1363 17.8722 50.9375C17.5404 51.7387 17.4535 52.6203 17.6227 53.4708C17.7919 54.3213 18.2095 55.1026 18.8227 55.7158C19.4359 56.329 20.2171 56.7466 21.0677 56.9158C21.9182 57.0849 22.7998 56.9981 23.601 56.6662C24.4022 56.3344 25.087 55.7724 25.5688 55.0514C26.0505 54.3303 26.3077 53.4826 26.3077 52.6154C26.3077 51.4525 25.8457 50.3373 25.0235 49.515C24.2012 48.6927 23.0859 48.2308 21.9231 48.2308ZM50.4231 48.2308C49.5559 48.2308 48.7082 48.4879 47.9871 48.9697C47.2661 49.4515 46.7041 50.1363 46.3722 50.9375C46.0404 51.7387 45.9535 52.6203 46.1227 53.4708C46.2919 54.3213 46.7095 55.1026 47.3227 55.7158C47.9359 56.329 48.7171 56.7466 49.5677 56.9158C50.4182 57.0849 51.2998 56.9981 52.101 56.6662C52.9022 56.3344 53.587 55.7724 54.0688 55.0514C54.5505 54.3303 54.8077 53.4826 54.8077 52.6154C54.8077 51.4525 54.3457 50.3373 53.5235 49.515C52.7012 48.6927 51.5859 48.2308 50.4231 48.2308Z" fill="#5D5A88"/>
</svg>
