<svg width="49" height="66" viewBox="0 0 49 66" fill="none" xmlns="http://www.w3.org/2000/svg">
<path d="M48.3885 24.2086C48.3909 20.1313 47.3629 16.1196 45.3999 12.5459C43.4369 8.97232 40.6026 5.95275 37.1602 3.76769C33.7179 1.58263 29.7792 0.302953 25.7099 0.0475274C21.6407 -0.207898 17.5728 0.569209 13.8843 2.30667C10.1957 4.04413 7.0061 6.68559 4.61164 9.9857C2.21718 13.2858 0.695564 17.1375 0.188117 21.1831C-0.319329 25.2287 0.203858 29.3369 1.70908 33.1261C3.21431 36.9154 5.65274 40.2628 8.79791 42.8574V63.7992C8.79764 64.1743 8.89331 64.5432 9.07582 64.8709C9.25834 65.1987 9.52163 65.4742 9.84068 65.6715C10.1597 65.8688 10.5239 65.9812 10.8987 65.998C11.2734 66.0149 11.6462 65.9356 11.9817 65.7677L24.1942 59.6752L36.4096 65.7815C36.7158 65.928 37.0516 66.0023 37.3911 65.9987C37.9744 65.9987 38.5339 65.7669 38.9464 65.3544C39.3589 64.942 39.5906 64.3825 39.5906 63.7992V42.8574C42.3425 40.5909 44.5585 37.7434 46.0796 34.5191C47.6008 31.2948 48.3892 27.7737 48.3885 24.2086ZM4.39896 24.2086C4.39896 20.2935 5.55993 16.4663 7.73506 13.2109C9.9102 9.95562 13.0018 7.4184 16.6189 5.92015C20.236 4.42189 24.2162 4.02988 28.0561 4.79368C31.896 5.55749 35.4232 7.4428 38.1916 10.2112C40.96 12.9796 42.8454 16.5068 43.6092 20.3467C44.373 24.1866 43.981 28.1668 42.4827 31.7839C40.9845 35.4011 38.4472 38.4927 35.1919 40.6678C31.9366 42.8429 28.1094 44.0039 24.1942 44.0039C18.946 43.9981 13.9144 41.9106 10.2033 38.1996C6.49222 34.4885 4.40478 29.4569 4.39896 24.2086ZM8.79791 24.2086C8.79791 21.1635 9.70089 18.1868 11.3927 15.6549C13.0844 13.1229 15.489 11.1496 18.3023 9.98425C21.1156 8.81894 24.2113 8.51404 27.1979 9.10811C30.1845 9.70218 32.9279 11.1685 35.0811 13.3218C37.2343 15.475 38.7007 18.2183 39.2947 21.2049C39.8888 24.1915 39.5839 27.2872 38.4186 30.1005C37.2533 32.9138 35.2799 35.3184 32.748 37.0102C30.2161 38.702 27.2394 39.6049 24.1942 39.6049C20.1122 39.6006 16.1986 37.9771 13.3122 35.0906C10.4258 32.2042 8.80228 28.2906 8.79791 24.2086Z" fill="#FFB800"/>
</svg>
