<svg width="29" height="39" viewBox="0 0 29 39" fill="none" xmlns="http://www.w3.org/2000/svg">
<path d="M14.6225 5.57143C14.6225 4.46951 14.9492 3.39233 15.5614 2.47611C16.1736 1.55989 17.0438 0.845791 18.0618 0.424102C19.0799 0.00241399 20.2001 -0.107919 21.2808 0.107056C22.3616 0.322031 23.3543 0.852658 24.1335 1.63184C24.9127 2.41101 25.4433 3.40375 25.6583 4.4845C25.8733 5.56525 25.7629 6.68548 25.3412 7.70353C24.9195 8.72157 24.2054 9.59171 23.2892 10.2039C22.373 10.8161 21.2958 11.1429 20.1939 11.1429C18.7163 11.1429 17.2992 10.5559 16.2543 9.51103C15.2095 8.46618 14.6225 7.04907 14.6225 5.57143ZM27.1582 20.8929C23.0893 20.8929 22.123 19.4025 20.7859 17.3411C20.1504 16.3591 19.4296 15.2518 18.3205 14.2855C17.8956 13.914 17.428 13.5943 16.9277 13.3331C16.7582 13.2458 16.5727 13.1942 16.3826 13.1815C16.1924 13.1688 16.0017 13.1953 15.8221 13.2593C15.6426 13.3232 15.4781 13.4234 15.3389 13.5535C15.1996 13.6836 15.0885 13.8409 15.0125 14.0156L4.98738 37.0517C4.84047 37.3905 4.83406 37.7737 4.96954 38.1171C5.10503 38.4606 5.37133 38.7362 5.70993 38.8834C5.88484 38.9607 6.07407 39.0005 6.26533 39C6.53678 39.0001 6.80234 38.9209 7.02938 38.7721C7.25642 38.6234 7.43504 38.4115 7.54328 38.1625L13.3915 24.7093L18.801 28.5745V37.6072C18.801 37.9766 18.9478 38.3308 19.209 38.592C19.4702 38.8533 19.8245 39 20.1939 39C20.5633 39 20.9176 38.8533 21.1788 38.592C21.44 38.3308 21.5868 37.9766 21.5868 37.6072V27.8571C21.5868 27.6354 21.5338 27.4169 21.4324 27.2198C21.331 27.0227 21.1839 26.8526 21.0035 26.7237L14.5267 22.0977L16.8598 16.7334C17.4813 17.3637 17.9531 18.0915 18.4493 18.8558C19.7847 20.9172 21.2821 23.2276 25.7618 23.6194V37.6072C25.7618 37.9766 25.9086 38.3308 26.1698 38.592C26.431 38.8533 26.7853 39 27.1547 39C27.5241 39 27.8784 38.8533 28.1396 38.592C28.4008 38.3308 28.5476 37.9766 28.5476 37.6072V22.2857C28.5476 21.9169 28.4013 21.5632 28.1408 21.302C27.8804 21.0409 27.527 20.8938 27.1582 20.8929ZM6.26533 23.6786C6.53815 23.6788 6.80502 23.5989 7.03283 23.4488C7.26063 23.2986 7.43934 23.0849 7.54676 22.8342L11.7253 13.0842C11.8706 12.7447 11.8752 12.3615 11.7381 12.0187C11.601 11.6759 11.3334 11.4016 10.9941 11.256L6.11908 9.16674C5.77967 9.02145 5.39646 9.01686 5.05366 9.15398C4.71087 9.2911 4.43654 9.55871 4.29096 9.89799L0.112384 19.648C-0.0329059 19.9874 -0.0374961 20.3706 0.0996218 20.7134C0.23674 21.0562 0.504347 21.3305 0.843634 21.4761L5.71863 23.5654C5.89136 23.6396 6.07733 23.6781 6.26533 23.6786Z" fill="black"/>
</svg>
