<svg width="36" height="32" viewBox="0 0 36 32" fill="none" xmlns="http://www.w3.org/2000/svg">
<path d="M35.6477 7.71385L31.7031 21.9108C31.4862 22.6863 31.0223 23.3699 30.3818 23.858C29.7413 24.3461 28.9591 24.612 28.1538 24.6154H12.9477C12.14 24.615 11.3547 24.3505 10.7114 23.8622C10.0681 23.3739 9.60214 22.6886 9.38462 21.9108L3.98769 2.46154H1.23077C0.904349 2.46154 0.591298 2.33187 0.360484 2.10105C0.12967 1.87024 0 1.55719 0 1.23077C0 0.904349 0.12967 0.591298 0.360484 0.360484C0.591298 0.12967 0.904349 2.27329e-08 1.23077 2.27329e-08H4.92308C5.19216 -5.16767e-05 5.45384 0.0880794 5.66806 0.250902C5.88229 0.413724 6.03725 0.642265 6.10923 0.901539L7.56769 6.15385H34.4615C34.6513 6.15381 34.8385 6.19764 35.0085 6.28192C35.1784 6.3662 35.3267 6.48864 35.4415 6.63968C35.5563 6.79071 35.6347 6.96626 35.6705 7.1526C35.7062 7.33894 35.6984 7.53102 35.6477 7.71385ZM12.3077 27.0769C11.8208 27.0769 11.3449 27.2213 10.9401 27.4918C10.5353 27.7622 10.2198 28.1467 10.0335 28.5965C9.84722 29.0463 9.79847 29.5412 9.89345 30.0187C9.98843 30.4962 10.2229 30.9348 10.5671 31.279C10.9114 31.6233 11.35 31.8577 11.8275 31.9527C12.305 32.0477 12.7999 31.9989 13.2497 31.8126C13.6995 31.6263 14.0839 31.3108 14.3544 30.906C14.6249 30.5012 14.7692 30.0253 14.7692 29.5385C14.7692 28.8856 14.5099 28.2595 14.0483 27.7979C13.5866 27.3363 12.9605 27.0769 12.3077 27.0769ZM28.3077 27.0769C27.8208 27.0769 27.3449 27.2213 26.9401 27.4918C26.5353 27.7622 26.2198 28.1467 26.0335 28.5965C25.8472 29.0463 25.7985 29.5412 25.8935 30.0187C25.9884 30.4962 26.2229 30.9348 26.5671 31.279C26.9114 31.6233 27.35 31.8577 27.8275 31.9527C28.305 32.0477 28.7999 31.9989 29.2497 31.8126C29.6995 31.6263 30.0839 31.3108 30.3544 30.906C30.6249 30.5012 30.7692 30.0253 30.7692 29.5385C30.7692 28.8856 30.5099 28.2595 30.0483 27.7979C29.5866 27.3363 28.9605 27.0769 28.3077 27.0769Z" fill="white"/>
</svg>
