<svg width="80" height="120" viewBox="0 0 80 120" fill="none" xmlns="http://www.w3.org/2000/svg">
<path d="M40.242 119.792C28.5229 119.792 16.8038 119.792 5.08474 119.792C4.51227 119.792 3.9324 119.792 3.35747 119.691C0.423584 119.226 -0.755893 115.867 0.495142 111.325C1.58085 107.404 2.76526 103.584 3.91513 99.7045C9.34369 81.4397 14.7722 63.1778 20.2008 44.9187C20.3686 44.3609 20.5438 43.8032 20.7387 43.2706C22.1057 39.5466 24.3265 39.0224 26.076 42.2347C27.3097 44.4825 28.3535 47.0071 29.454 49.4436C35.0471 61.8652 40.6401 74.2924 46.2332 86.7251C48.676 92.1349 51.753 92.4285 54.6228 87.5639C56.0465 85.1483 57.4382 82.6699 58.8792 80.2753C61.4775 75.9558 64.4262 76.2159 66.5483 81.2524C70.8073 91.3591 74.9601 101.6 79.1327 111.807C79.4588 112.608 79.7086 113.491 79.8729 114.424C80.2776 116.768 79.7051 118.656 78.3061 119.28C77.4288 119.637 76.5282 119.802 75.6263 119.771C63.8381 119.805 52.0434 119.812 40.242 119.792Z" fill="#D4D2E3"/>
<path d="M66.5236 19.7107C66.5206 23.6092 65.8366 27.4183 64.5582 30.6553C63.2799 33.8923 61.4648 36.4112 59.3431 37.8929C57.2213 39.3745 54.8885 39.7521 52.6404 38.9777C50.3922 38.2034 48.33 36.312 46.7151 33.5433C45.1003 30.7746 44.0055 27.2533 43.5696 23.4259C43.1336 19.5984 43.3762 15.6372 44.2666 12.0444C45.1569 8.45154 46.6549 5.38891 48.5707 3.24475C50.4864 1.1006 52.7336 -0.0285177 55.0274 0.00054733C58.0818 0.0665147 60.9987 2.16969 63.1492 5.85669C65.2997 9.54369 66.5115 14.5192 66.5236 19.7107Z" fill="#D4D2E3"/>
</svg>
