<svg width="269" height="47" viewBox="0 0 269 47" fill="none" xmlns="http://www.w3.org/2000/svg">
<path d="M246 1.5C257.844 1.5 267.5 11.3192 267.5 23.5C267.5 35.6808 257.844 45.5 246 45.5C234.156 45.5 224.5 35.6808 224.5 23.5C224.5 11.3192 234.156 1.5 246 1.5Z" fill="white" stroke="#2E7D32" stroke-width="3"/>
<rect x="213" y="13" width="26" height="22" fill="white"/>
<path d="M9.59656 32.336C7.99656 32.336 6.57256 31.976 5.32456 31.256C4.07656 30.528 3.09656 29.512 2.38456 28.208C1.67256 26.896 1.31656 25.36 1.31656 23.6C1.31656 21.84 1.67256 20.308 2.38456 19.004C3.09656 17.692 4.07656 16.676 5.32456 15.956C6.57256 15.228 7.99656 14.864 9.59656 14.864C11.1966 14.864 12.6206 15.228 13.8686 15.956C15.1166 16.676 16.0966 17.692 16.8086 19.004C17.5206 20.308 17.8766 21.84 17.8766 23.6C17.8766 25.36 17.5206 26.896 16.8086 28.208C16.0966 29.512 15.1166 30.528 13.8686 31.256C12.6206 31.976 11.1966 32.336 9.59656 32.336ZM9.59656 29.36C10.7166 29.36 11.6526 29.112 12.4046 28.616C13.1566 28.12 13.7206 27.44 14.0966 26.576C14.4726 25.704 14.6606 24.712 14.6606 23.6C14.6606 22.488 14.4726 21.5 14.0966 20.636C13.7206 19.764 13.1566 19.08 12.4046 18.584C11.6526 18.088 10.7166 17.84 9.59656 17.84C8.47656 17.84 7.54056 18.088 6.78856 18.584C6.03656 19.08 5.47256 19.764 5.09656 20.636C4.72056 21.5 4.53256 22.488 4.53256 23.6C4.53256 24.712 4.72056 25.704 5.09656 26.576C5.47256 27.44 6.03656 28.12 6.78856 28.616C7.54056 29.112 8.47656 29.36 9.59656 29.36ZM20.5589 32V15.2H23.5829L30.7589 26.048V15.2H33.8309V32H31.3109L23.6309 20.48V32H20.5589ZM37.5277 32V15.2H48.2797V18.176H40.6717V21.752H46.5757V24.728H40.6717V29.024H48.5197V32H37.5277ZM59.6789 32L54.9509 15.2H58.1429L61.5029 27.128L65.2469 15.2H67.3829L71.2709 26.816L74.4869 15.2H77.6789L72.7589 32H70.0469L66.3029 20.792L62.5829 32H59.6789ZM87.9691 28.016H80.9371V25.328H87.9691V28.016ZM84.0571 18.2H84.8491L80.0011 32H77.0251L83.0011 15.2H85.9051L91.8811 32H88.9051L84.0571 18.2ZM96.1183 32V25.208L90.2142 15.2H93.5742L98.3743 23.72H96.9343L101.734 15.2H105.094L99.1903 25.208V32H96.1183ZM112.129 32V15.2H118.465C120.089 15.2 121.293 15.548 122.077 16.244C122.869 16.932 123.265 17.936 123.265 19.256C123.265 20.24 123.041 21.064 122.593 21.728C122.153 22.384 121.489 22.864 120.601 23.168V22.592C121.945 22.88 122.949 23.408 123.613 24.176C124.277 24.944 124.609 25.96 124.609 27.224C124.609 28.736 124.121 29.912 123.145 30.752C122.169 31.584 120.833 32 119.137 32H112.129ZM115.201 29.264H118.681C119.521 29.264 120.189 29.092 120.685 28.748C121.189 28.404 121.441 27.784 121.441 26.888C121.441 25.976 121.177 25.356 120.649 25.028C120.121 24.7 119.465 24.536 118.681 24.536H115.201V29.264ZM115.201 21.8H118.009C118.753 21.8 119.309 21.648 119.677 21.344C120.053 21.04 120.241 20.552 120.241 19.88C120.241 19.184 120.053 18.688 119.677 18.392C119.309 18.088 118.753 17.936 118.009 17.936H115.201V21.8ZM127.153 32V15.2H130.225V32H127.153ZM143.454 32L137.238 23.12L143.454 15.2H147.054L140.79 23.12L147.054 32H143.454ZM133.926 32V15.2H136.998V32H133.926ZM148.973 32V15.2H159.725V18.176H152.117V21.752H158.021V24.728H152.117V29.024H159.965V32H148.973ZM171.268 32V18.176H166.516V15.2H179.092V18.176H174.34V32H171.268ZM188.237 32.336C186.637 32.336 185.213 31.976 183.965 31.256C182.717 30.528 181.737 29.512 181.025 28.208C180.313 26.896 179.957 25.36 179.957 23.6C179.957 21.84 180.313 20.308 181.025 19.004C181.737 17.692 182.717 16.676 183.965 15.956C185.213 15.228 186.637 14.864 188.237 14.864C189.837 14.864 191.261 15.228 192.509 15.956C193.757 16.676 194.737 17.692 195.449 19.004C196.161 20.308 196.517 21.84 196.517 23.6C196.517 25.36 196.161 26.896 195.449 28.208C194.737 29.512 193.757 30.528 192.509 31.256C191.261 31.976 189.837 32.336 188.237 32.336ZM188.237 29.36C189.357 29.36 190.293 29.112 191.045 28.616C191.797 28.12 192.361 27.44 192.737 26.576C193.113 25.704 193.301 24.712 193.301 23.6C193.301 22.488 193.113 21.5 192.737 20.636C192.361 19.764 191.797 19.08 191.045 18.584C190.293 18.088 189.357 17.84 188.237 17.84C187.117 17.84 186.181 18.088 185.429 18.584C184.677 19.08 184.113 19.764 183.737 20.636C183.361 21.5 183.173 22.488 183.173 23.6C183.173 24.712 183.361 25.704 183.737 26.576C184.113 27.44 184.677 28.12 185.429 28.616C186.181 29.112 187.117 29.36 188.237 29.36ZM205.968 32.336C204.392 32.336 203.088 32.024 202.056 31.4C201.032 30.776 200.268 29.9 199.764 28.772C199.26 27.644 199.008 26.32 199.008 24.8V15.2H202.08V24.008C202.08 24.808 202.132 25.54 202.236 26.204C202.34 26.86 202.528 27.428 202.8 27.908C203.08 28.38 203.476 28.744 203.988 29C204.5 29.256 205.16 29.384 205.968 29.384C206.776 29.384 207.436 29.256 207.948 29C208.46 28.744 208.852 28.38 209.124 27.908C209.404 27.428 209.596 26.86 209.7 26.204C209.804 25.54 209.856 24.808 209.856 24.008V15.2H212.928V24.8C212.928 26.32 212.676 27.644 212.172 28.772C211.668 29.9 210.9 30.776 209.868 31.4C208.844 32.024 207.544 32.336 205.968 32.336ZM216.426 32V15.2H222.57C223.73 15.2 224.742 15.384 225.606 15.752C226.478 16.12 227.154 16.68 227.634 17.432C228.114 18.184 228.354 19.136 228.354 20.288C228.354 21.52 228.09 22.5 227.562 23.228C227.042 23.948 226.354 24.52 225.498 24.944L229.29 32H225.858L222.618 25.76C222.594 25.76 222.574 25.76 222.558 25.76C222.542 25.76 222.522 25.76 222.498 25.76H219.498V32H216.426ZM219.498 23.192H221.754C223.018 23.192 223.898 22.936 224.394 22.424C224.89 21.904 225.138 21.248 225.138 20.456C225.138 19.616 224.894 18.96 224.406 18.488C223.918 18.008 223.074 17.768 221.874 17.768H219.498V23.192ZM236.322 32.336C235.642 32.336 234.942 32.268 234.222 32.132C233.502 32.004 232.834 31.848 232.218 31.664C231.602 31.472 231.114 31.288 230.754 31.112L231.114 27.848C231.674 28.12 232.258 28.372 232.866 28.604C233.474 28.836 234.098 29.024 234.738 29.168C235.378 29.312 236.026 29.384 236.682 29.384C237.498 29.384 238.154 29.224 238.65 28.904C239.146 28.584 239.394 28.096 239.394 27.44C239.394 26.936 239.254 26.532 238.974 26.228C238.694 25.916 238.266 25.64 237.69 25.4C237.114 25.152 236.378 24.872 235.482 24.56C234.586 24.248 233.782 23.896 233.07 23.504C232.358 23.104 231.794 22.6 231.378 21.992C230.962 21.384 230.754 20.608 230.754 19.664C230.754 18.736 230.982 17.912 231.438 17.192C231.894 16.464 232.574 15.896 233.478 15.488C234.39 15.072 235.522 14.864 236.874 14.864C237.898 14.864 238.874 14.98 239.802 15.212C240.73 15.436 241.522 15.68 242.178 15.944L241.866 19.088C240.922 18.664 240.034 18.344 239.202 18.128C238.378 17.904 237.538 17.792 236.682 17.792C235.786 17.792 235.094 17.94 234.606 18.236C234.118 18.532 233.874 18.976 233.874 19.568C233.874 20.04 234.01 20.42 234.282 20.708C234.554 20.996 234.942 21.244 235.446 21.452C235.95 21.652 236.554 21.864 237.258 22.088C238.474 22.472 239.494 22.896 240.318 23.36C241.15 23.816 241.774 24.372 242.19 25.028C242.614 25.676 242.826 26.48 242.826 27.44C242.826 27.92 242.75 28.444 242.598 29.012C242.446 29.572 242.146 30.104 241.698 30.608C241.25 31.112 240.594 31.528 239.73 31.856C238.874 32.176 237.738 32.336 236.322 32.336Z" fill="#2E7D32"/>
<circle cx="9" cy="24" r="2" fill="#2E7D32"/>
<circle cx="250" cy="23" r="2" fill="#2E7D32"/>
<line x1="181" y1="45.5" x2="244" y2="45.5" stroke="#2E7D32" stroke-width="3"/>
</svg>
